<svg width="77" height="75" viewBox="0 0 77 75" fill="none" xmlns="http://www.w3.org/2000/svg">
<circle cx="37" cy="38" r="37" fill="#46A358" fill-opacity="0.13"/>
<g clip-path="url(#clip0_1940_301)">
<path d="M28.1293 26.3569C40.7023 28.0205 53.3918 28.282 66.0231 27.1369C66.8795 27.0602 66.8885 25.7077 66.0231 25.7844C53.3918 26.9295 40.7023 26.668 28.1293 25.0044C27.2773 24.8917 27.2818 26.2487 28.1293 26.3569Z" fill="#727272"/>
<path d="M31.0304 72.0307C36.465 72.725 41.9354 73.0631 47.4147 72.9865C52.235 72.9189 57.9251 73.1308 62.4449 71.2237C63.2296 70.8901 62.8843 69.5827 62.0862 69.9208C57.4498 71.8775 51.5086 71.6115 46.5493 71.643C41.3569 71.6791 36.178 71.3365 31.0259 70.6782C30.174 70.57 30.1785 71.9225 31.0304 72.0307Z" fill="#727272"/>
<path d="M27.6047 25.3155C21.3316 31.1673 18.4081 39.8909 19.0986 48.3981C19.4529 52.7937 20.6904 57.0675 22.5513 61.0529C24.2462 64.6866 26.7438 69.8937 30.4923 71.7827C31.2636 72.1704 31.9451 71.0072 31.1694 70.615C27.6809 68.8568 25.3089 63.7939 23.7126 60.3721C21.8563 56.3823 20.6411 52.0498 20.39 47.6452C19.9416 39.706 22.7127 31.7218 28.5597 26.2713C29.1965 25.6807 28.2414 24.7249 27.6047 25.3155Z" fill="#727272"/>
<path d="M65.5478 26.9522C72.1661 31.1223 72.7893 40.1164 72.6279 47.199C72.4486 55.0975 71.4755 67.6126 62.0862 69.9209C61.2477 70.1283 61.6019 71.4312 62.4449 71.2238C72.2468 68.8163 73.6547 56.3959 73.9507 48.0375C74.2242 40.2156 73.5337 30.3875 66.2248 25.7845C65.4895 25.3247 64.8169 26.4923 65.5478 26.9522Z" fill="#727272"/>
<path d="M32.5774 26.366C27.6406 31.7084 25.4614 40.6303 26.2954 47.785C26.7797 51.9462 28.089 56.0758 29.062 60.1378C30.0395 64.2088 31.0484 68.2483 33.2634 71.8414C33.7208 72.5807 34.8821 71.9 34.4248 71.1606C32.3442 67.7884 31.3757 64.0195 30.4565 60.2009C29.5687 56.5221 28.5329 52.8388 27.8468 49.1195C26.5465 42.0369 28.5822 32.6777 33.528 27.3218C34.1154 26.6816 33.1648 25.7259 32.5774 26.366Z" fill="#727272"/>
<path d="M39.2405 26.9295C35.5637 33.4395 33.6311 40.8331 33.7297 48.3259C33.7791 51.9235 34.2902 55.5257 35.2677 58.9881C36.4829 63.2845 38.3303 67.36 39.1374 71.7736C39.2943 72.6302 40.5902 72.265 40.4332 71.413C39.7292 67.5493 38.2361 63.9517 37.0478 60.2278C35.8955 56.6122 35.2049 52.8838 35.0884 49.0833C34.8552 41.5679 36.7116 34.1427 40.4018 27.6102C40.8323 26.8528 39.6709 26.1721 39.2405 26.9295Z" fill="#727272"/>
<path d="M43.2043 28.2234C44.4822 35.7343 42.9308 43.2586 43.0608 50.8011C43.1191 54.2454 43.8858 57.4508 44.3342 60.8411C44.8006 64.3621 44.0024 67.9822 43.5675 71.4762C43.4599 72.3373 44.8051 72.3282 44.9127 71.4762C45.3521 67.9507 46.1458 64.3034 45.6794 60.7509C45.2041 57.1172 44.4015 53.6728 44.397 49.976C44.388 42.5779 45.7512 35.2339 44.5001 27.8673C44.3522 27.0107 43.0563 27.3714 43.2043 28.2234Z" fill="#727272"/>
<path d="M48.2487 27.5968C50.6118 34.3818 50.8987 41.541 51.1364 48.6596C51.3965 56.3914 51.0108 64.0014 49.576 71.6114C49.4146 72.4635 50.7104 72.8287 50.8718 71.9721C52.3291 64.2448 52.7461 56.5086 52.4816 48.6596C52.2394 41.4238 51.9435 34.1293 49.5446 27.2361C49.2621 26.4246 47.9618 26.7762 48.2487 27.5968Z" fill="#727272"/>
<path d="M53.9075 27.6284C54.4052 29.1567 55.4813 30.1756 56.3064 31.519C57.248 33.0519 57.7637 34.7876 58.0417 36.5548C58.647 40.4139 58.36 44.4534 58.3511 48.3441C58.3421 52.5774 58.6649 57.0541 57.5753 61.1882C56.6158 64.8174 54.4142 67.9462 53.6788 71.652C53.5084 72.5041 54.8043 72.8648 54.9747 72.0127C55.7638 68.0454 58.2031 64.6867 59.064 60.7374C59.9473 56.698 59.6873 52.4511 59.6962 48.3441C59.7052 44.5481 59.9339 40.6664 59.4362 36.8929C59.2165 35.2249 58.8398 33.5748 58.1224 32.051C57.3242 30.3514 55.7862 29.0575 55.2078 27.2722C54.9343 26.4472 53.634 26.7988 53.9075 27.6284Z" fill="#727272"/>
<path d="M60.4495 27.4163C63.1219 29.941 64.4088 33.9714 65.3729 37.4518C66.3773 41.0765 66.041 44.9447 65.8168 48.655C65.3639 56.1839 64.0994 63.7038 60.5078 70.4121C60.0953 71.1785 61.2566 71.8638 61.6692 71.0929C65.4984 63.9382 66.7764 55.8954 67.2023 47.8706C67.4176 43.8311 67.5924 39.8863 66.3324 35.9957C65.2384 32.6189 64.0322 28.9492 61.4001 26.4561C60.7724 25.8655 59.8173 26.8212 60.4495 27.4163Z" fill="#727272"/>
<path d="M32.4697 30.7977C32.3307 31.1538 32.1783 31.5055 32.0124 31.8526C31.8016 32.2899 32.0482 32.8895 32.5953 32.8715C32.9854 32.858 33.2948 32.6822 33.5728 32.4162C33.6625 32.3305 33.7521 32.2403 33.8373 32.1547C33.9494 32.042 33.8015 32.2223 33.8867 32.1186C33.8687 32.1457 33.7746 32.1367 33.8598 32.1457C33.6445 31.8616 33.4293 31.5731 33.2096 31.2891C33.1513 31.5911 33.0885 31.8932 33.0302 32.1998C32.9585 32.5559 33.1334 32.9301 33.501 33.0338C33.8329 33.124 34.2588 32.9211 34.3306 32.5604C34.3889 32.2584 34.4516 31.9563 34.5099 31.6498C34.5996 31.1899 34.3171 30.8383 33.8598 30.7932C33.4876 30.7571 33.1513 30.9555 32.8867 31.1989C32.7926 31.2846 32.7119 31.3747 32.6177 31.4604C32.5863 31.4875 32.5594 31.5145 32.528 31.5416C32.5415 31.528 32.5549 31.519 32.5684 31.5055C32.5011 31.5416 32.5011 31.5461 32.5774 31.5145C32.5011 31.5325 32.5056 31.537 32.5908 31.5145C32.7836 31.8526 32.9764 32.1908 33.1737 32.5334C33.3889 32.0826 33.5862 31.6227 33.7656 31.1583C33.8956 30.8157 33.6221 30.4145 33.2948 30.3243C32.9181 30.2206 32.6043 30.4551 32.4697 30.7977Z" fill="#727272"/>
<path d="M29.1382 38.8902C29.0754 39.2689 29.0127 39.6476 28.9499 40.0217C28.9006 40.3238 28.9813 40.6213 29.2593 40.7836C29.5059 40.9279 29.8781 40.9009 30.0754 40.68C30.2054 40.5312 30.3354 40.3824 30.4655 40.2336C30.5506 40.1345 30.6717 39.9496 30.7748 39.8955C30.6627 39.9271 30.5506 39.9586 30.4341 39.9857C30.4565 39.9812 30.4834 39.9812 30.5058 39.9767C30.3937 39.9451 30.2816 39.9135 30.165 39.8865C30.183 39.9 30.2009 39.9135 30.2188 39.9271C30.1067 39.7332 29.9946 39.5394 29.887 39.341C29.9229 39.7287 29.8153 40.1615 29.7704 40.5537C29.7077 41.1173 30.3758 41.3246 30.7838 41.1398C31.3129 40.8918 31.6672 40.4365 31.8555 39.891C31.4788 39.9902 31.1067 40.0894 30.73 40.1886C30.7166 40.1029 30.7031 40.0172 30.6897 39.9316C30.4699 40.7746 31.7703 41.1353 31.9855 40.2922C32.0842 39.909 31.9945 39.4898 31.6806 39.2328C31.277 38.9037 30.7345 39.0209 30.5551 39.5303C30.4744 39.7558 30.3085 39.873 30.1023 39.9722C30.4386 40.166 30.7748 40.3599 31.1156 40.5582C31.1829 39.9541 31.5057 38.8811 30.6807 38.6512C29.9857 38.4574 29.4969 39.2869 29.1203 39.7242C29.4969 39.9451 29.8691 40.1615 30.2457 40.3824C30.3085 40.0037 30.3713 39.625 30.4341 39.2508C30.4924 38.8902 30.3399 38.5205 29.9633 38.4168C29.6449 38.3311 29.1965 38.5295 29.1382 38.8902Z" fill="#727272"/>
<path d="M28.5597 47.0367C28.6046 47.5687 28.6539 48.1007 28.6987 48.6281C28.766 49.381 29.7749 49.5568 30.0215 48.8085C30.156 48.3937 30.3443 48.0195 30.582 47.6498C30.174 47.5957 29.7614 47.5416 29.3534 47.4875C29.5103 47.8798 29.6179 48.281 29.6762 48.7048C29.7435 49.1827 30.3219 49.2638 30.6627 49.1105C30.8331 49.0339 30.9721 48.8851 31.0618 48.7228C31.1021 48.6507 31.1335 48.565 31.1604 48.4884C31.1739 48.4478 31.1828 48.4072 31.1963 48.3666C31.2187 48.299 31.2097 48.3035 31.1784 48.3802C31.0797 48.4388 30.9811 48.4974 30.8824 48.556C30.9048 48.547 30.9317 48.5425 30.9542 48.5335C30.8331 48.5335 30.7165 48.5335 30.5954 48.5335C30.5865 48.5289 30.5775 48.5244 30.573 48.5154C30.4923 48.4343 30.4116 48.3531 30.3309 48.272C30.3443 48.29 30.3533 48.308 30.3668 48.3261C30.3443 48.1503 30.3219 47.9789 30.2995 47.8031C30.295 47.8257 30.295 47.8482 30.2905 47.8662C30.2412 48.2269 30.3757 48.5921 30.7614 48.7003C31.0752 48.7859 31.5416 48.5921 31.5909 48.2269C31.6312 47.9339 31.6088 47.6679 31.3936 47.447C31.2142 47.2666 30.9407 47.181 30.6896 47.208C30.4295 47.2396 30.2009 47.3929 30.0619 47.6138C30.0036 47.7084 29.9229 47.8392 29.9184 47.9474C29.9139 48.1052 29.8466 47.9925 29.9901 47.9293C30.3174 48.0646 30.6493 48.1998 30.9766 48.3351C30.9183 47.9158 30.8107 47.5146 30.6537 47.1178C30.4385 46.5859 29.757 46.4326 29.4251 46.9555C29.1292 47.4199 28.9005 47.9158 28.7301 48.4343C29.1696 48.4929 29.609 48.556 30.0529 48.6146C30.0081 48.0826 29.9587 47.5506 29.9139 47.0232C29.8825 46.658 29.6269 46.3469 29.2413 46.3469C28.896 46.3604 28.5284 46.6715 28.5597 47.0367Z" fill="#727272"/>
<path d="M30.1784 56.5762C30.2233 57.3561 30.6134 58.0369 31.2905 58.4336C31.7389 58.6906 32.2949 58.3615 32.3038 57.8475C32.3083 57.4508 32.398 57.0856 32.5505 56.7204C32.1738 56.8196 31.8016 56.9188 31.425 57.018C31.6088 57.2434 31.8061 57.4418 32.0258 57.6266C32.3845 57.9287 33.0392 57.8701 33.1513 57.3291C33.1782 57.2073 33.2096 57.1036 33.2499 56.9909C32.8733 57.0901 32.5011 57.1893 32.1245 57.2885C32.1648 57.2659 32.1873 57.293 32.1828 57.3651C32.3263 57.7033 32.8195 57.7754 33.102 57.6086C33.4472 57.4057 33.4876 57.0225 33.3441 56.6844C33.2858 56.5491 33.1917 56.4274 33.0751 56.3327C32.6581 56.0036 32.1469 56.1253 31.9496 56.6303C31.9048 56.743 31.8734 56.8512 31.851 56.9684C32.2276 56.8692 32.5998 56.77 32.9764 56.6708C32.7567 56.486 32.5594 56.2831 32.3756 56.0622C32.0169 55.6204 31.425 55.9495 31.2501 56.3598C31.0528 56.8331 30.9631 57.3336 30.9542 57.8475C31.2905 57.6537 31.6268 57.4598 31.9675 57.2614C31.7075 57.1127 31.5371 56.8782 31.5191 56.5717C31.4743 55.7151 30.1291 55.7061 30.1784 56.5762Z" fill="#727272"/>
<path d="M32.9496 65.8498C33.1065 66.2555 33.2948 66.6297 33.5504 66.9859C33.9495 67.5359 34.7431 67.333 34.8059 66.6433C34.8104 66.6027 34.8821 66.1023 34.8552 66.0797C34.6624 66.2014 34.4741 66.3232 34.2813 66.4449C34.3261 66.508 34.3665 66.5666 34.4158 66.6252C34.5862 66.8416 34.7969 67.0265 35.0705 67.1031C35.2812 67.1572 35.5278 67.1302 35.7117 67.0129C35.8327 66.9318 35.9179 66.8371 35.9807 66.7064C36.0031 66.6523 36.0255 66.5982 36.048 66.5441C36.1511 66.2195 35.9538 66.1654 35.4606 66.3818C35.7296 67.2023 37.0299 66.8506 36.7564 66.0211C36.5681 65.4531 36.0211 65.0834 35.4247 65.3088C35.1826 65.4035 34.9718 65.5838 34.8552 65.8182C34.8194 65.8904 34.6893 66.2014 34.7342 66.2916C34.9942 66.1428 35.2498 65.9896 35.5099 65.8408C35.474 65.7957 35.4381 65.7551 35.4068 65.71C35.1915 65.2727 34.5683 65.0248 34.1199 65.1871C33.4876 65.4125 33.5145 66.0887 33.4652 66.6478C33.8822 66.5351 34.2992 66.4224 34.7207 66.3051C34.5369 66.0527 34.371 65.7867 34.2544 65.4936C33.9315 64.6912 32.6312 65.0383 32.9496 65.8498Z" fill="#727272"/>
<path d="M40.1373 30.9824C39.6531 31.3476 39.2495 31.7804 38.985 32.3349C38.6397 33.0563 39.4423 33.6243 40.0432 33.1555C40.1867 33.0427 40.3301 32.93 40.4736 32.8173C40.5364 32.7677 40.5992 32.7181 40.6664 32.6686C40.6978 32.6415 40.7292 32.619 40.7606 32.5919C40.8727 32.5108 40.8144 32.5243 40.5857 32.628C40.4736 32.5964 40.3615 32.5649 40.2449 32.5378C40.2584 32.5468 40.2718 32.5558 40.2853 32.5649C40.2046 32.4837 40.1239 32.4026 40.0432 32.3214C40.0297 32.2628 40.0118 32.2087 39.9983 32.1501C40.0028 32.087 40.0028 32.078 39.9894 32.1321C39.958 32.1546 39.949 32.3079 39.949 32.3304C39.9176 32.5378 39.9356 32.7407 40.0432 32.93C40.1418 33.1014 40.3167 33.2546 40.5095 33.3042C40.5902 33.3268 40.6933 33.3358 40.7785 33.3358C40.8592 33.3358 40.931 33.3223 41.0027 33.2952C41.0969 33.2682 41.0655 33.2591 40.9041 33.2682C40.8054 33.2096 40.7068 33.1509 40.6081 33.0923C40.6216 33.1059 40.635 33.1194 40.6485 33.1329C40.5902 33.0337 40.5319 32.9345 40.4736 32.8354C40.4781 32.8489 40.4826 32.8669 40.4871 32.8804C40.5095 32.7046 40.5319 32.5333 40.5543 32.3575C40.5454 32.371 40.5409 32.3845 40.5319 32.3981C40.1239 33.1645 41.2852 33.8497 41.6933 33.0788C41.8681 32.7542 41.8278 32.389 41.5543 32.1321C41.4108 31.9968 41.218 31.9157 41.0207 31.9112C40.9086 31.9066 40.7785 31.9788 40.6799 31.9698C40.792 32.0013 40.9041 32.0329 41.0207 32.0599C41.0027 32.0464 40.9848 32.0329 40.9713 32.0239C41.0521 32.105 41.1328 32.1862 41.2135 32.2673C41.2045 32.2493 41.1955 32.2312 41.1866 32.2132C41.218 32.3259 41.2493 32.4386 41.2762 32.5558C41.2673 32.4702 41.2807 32.5153 41.3121 32.389C41.348 32.2312 41.3525 32.0599 41.3166 31.8976C41.2404 31.573 40.9982 31.3386 40.6754 31.28C40.3391 31.2169 40.1104 31.3927 39.8548 31.5911C39.5993 31.7894 39.3437 31.9923 39.0881 32.1907C39.4423 32.4657 39.7921 32.7362 40.1463 33.0112C40.3077 32.6776 40.514 32.371 40.8144 32.1456C41.1059 31.9292 41.2538 31.5595 41.0565 31.2214C40.8906 30.9374 40.4333 30.766 40.1373 30.9824Z" fill="#727272"/>
<path d="M37.5052 38.5925C37.3931 39.1335 37.2855 39.6745 37.1734 40.22C37.0344 40.9097 37.7788 41.3065 38.2989 40.8782C38.4513 40.7519 38.5859 40.5941 38.6845 40.4228C38.7518 40.3056 38.8325 40.0667 38.8684 40.0081C38.7876 40.0892 38.7069 40.1704 38.6262 40.2515C38.6486 40.238 38.6666 40.2245 38.689 40.2064C38.5769 40.238 38.4648 40.2696 38.3482 40.2966C38.3751 40.2921 38.402 40.2921 38.4289 40.2876C38.3168 40.256 38.2047 40.2245 38.0881 40.1974C37.9805 40.1478 37.976 39.972 38.0074 40.2019C38.0164 40.2605 38.0299 40.3101 38.0478 40.3642C38.1106 40.5671 38.2227 40.7474 38.3931 40.8737C38.55 40.9909 38.7338 41.054 38.9311 41.0495C39.0522 41.045 39.1643 41.0134 39.2719 40.9593C39.3302 40.9368 39.3795 40.9052 39.4244 40.8646C39.5409 40.7835 39.5096 40.788 39.3347 40.8692C39.2226 40.8376 39.1105 40.806 38.9939 40.779C39.0118 40.788 39.0163 40.797 39.0298 40.8331C39.3167 41.6491 40.6171 41.2974 40.3256 40.4724C40.2001 40.1163 40.0162 39.7872 39.671 39.6113C39.4916 39.5167 39.2674 39.4896 39.0701 39.5347C38.8728 39.5798 38.7563 39.7105 38.5859 39.7917C38.698 39.7601 38.8101 39.7286 38.9266 39.7015C38.9042 39.7015 38.8773 39.7015 38.8549 39.7015C38.967 39.7331 39.0791 39.7646 39.1957 39.7917C39.3167 40.0036 39.3526 40.0351 39.3033 39.8863C39.2943 39.8277 39.2854 39.7691 39.2764 39.7105C39.245 39.5933 39.1957 39.4716 39.1329 39.3724C38.967 39.1109 38.6935 38.9396 38.3841 38.9441C38.0792 38.9486 37.8012 39.1244 37.6577 39.3904C37.5366 39.6158 37.5456 39.7511 37.3393 39.9224C37.716 40.1433 38.0881 40.3597 38.4648 40.5806C38.5769 40.0396 38.6845 39.4986 38.7966 38.9576C38.976 38.1011 37.6801 37.7404 37.5052 38.5925Z" fill="#727272"/>
<path d="M36.9851 45.5039C36.8461 46.2298 36.7564 46.9601 36.734 47.695C36.716 48.2089 37.3169 48.5335 37.7473 48.281C37.9446 48.1638 38.0881 48.006 38.1957 47.8032C38.2361 47.7265 38.3527 47.5507 38.3303 47.4831C38.3258 47.4741 38.2854 47.5327 38.3034 47.5236C38.1913 47.5552 38.0792 47.5868 37.9626 47.6138C37.9536 47.6183 37.9402 47.6183 37.9312 47.6228C37.8505 47.5417 37.7698 47.4605 37.6891 47.3794C37.7653 47.4786 37.7563 47.4695 37.7653 47.5732C37.8146 48.1278 38.4782 48.4974 38.9132 48.0511C38.9625 47.997 39.0118 47.9474 39.0656 47.8978C38.9715 47.9429 38.8728 47.9339 38.7787 47.8798C38.7204 47.7806 38.6621 47.6814 38.6038 47.5823C38.6127 47.6093 38.6217 47.6364 38.6352 47.6634C38.7607 48.006 39.0925 48.2405 39.4647 48.1368C39.792 48.0466 40.0611 47.6499 39.9355 47.3027C39.5858 46.347 38.5679 46.4687 37.9626 47.0954C38.3437 47.2531 38.7293 47.4154 39.1105 47.5732C39.0567 46.9195 38.7338 46.2117 37.9626 46.2613C37.6487 46.2793 37.3707 46.4642 37.2048 46.7302C37.1465 46.8249 37.1061 46.9331 37.0613 47.0367C37.012 47.1495 36.9268 47.19 37.0658 47.1089C37.4021 47.3027 37.7384 47.4966 38.0792 47.695C38.0971 47.0773 38.1644 46.4687 38.2809 45.8601C38.4468 45.0125 37.151 44.6518 36.9851 45.5039Z" fill="#727272"/>
<path d="M37.6532 53.2265C37.8056 53.8306 37.9895 54.4212 38.2047 55.0028C38.3796 55.4761 38.9401 55.6745 39.3302 55.3003C39.5006 55.1335 39.6171 54.9396 39.6754 54.7052C39.6979 54.6105 39.7158 54.4978 39.7203 54.4031C39.7337 54.1146 39.7023 54.3536 39.7292 54.34C39.6171 54.3716 39.505 54.4031 39.3885 54.4302C39.4198 54.4302 39.4468 54.4257 39.4781 54.4257C39.366 54.3941 39.2539 54.3626 39.1374 54.3355C39.0477 54.2949 39.0746 54.2544 39.1463 54.3806C39.1822 54.4437 39.2136 54.4978 39.2584 54.5564C39.3974 54.7368 39.5678 54.8585 39.7965 54.89C39.9983 54.9171 40.1911 54.8675 40.3615 54.7503C40.4556 54.6827 40.5408 54.606 40.6036 54.5068C40.6305 54.4527 40.6574 54.3986 40.6798 54.3445C40.7695 54.1687 40.6933 54.2138 40.4512 54.4843C40.3301 54.4843 40.2135 54.4843 40.0924 54.4843C40.0386 54.4392 39.9893 54.3896 39.9355 54.3445C39.9041 54.2318 39.8727 54.1191 39.8458 54.0019C39.8458 54.029 39.8458 54.056 39.8458 54.0831C39.8324 54.9532 41.1776 54.9532 41.191 54.0831C41.2 53.6277 40.8861 53.2716 40.4512 53.1814C40.218 53.1318 39.9848 53.1814 39.792 53.3211C39.6979 53.3888 39.6216 53.4654 39.5589 53.5601C39.5454 53.5871 39.5319 53.6187 39.514 53.6457C39.3974 53.8712 39.4288 53.8667 39.6127 53.6322C39.7248 53.6007 39.8369 53.5691 39.9534 53.5421C39.931 53.5466 39.9086 53.5466 39.8862 53.5511C39.9983 53.5826 40.1104 53.6142 40.227 53.6412C40.4198 53.7359 40.3211 53.7044 40.2494 53.5781C40.1956 53.4789 40.1238 53.3843 40.0431 53.3121C39.7875 53.0822 39.4512 53.0236 39.1329 53.1363C38.8773 53.2265 38.6845 53.4248 38.5544 53.6548C38.4827 53.7855 38.4468 53.9162 38.4199 54.0605C38.4065 54.1236 38.4199 54.304 38.3796 54.3445C38.7562 54.4437 39.1284 54.5429 39.505 54.6421C39.2898 54.0605 39.106 53.4654 38.9535 52.8658C38.7338 52.0273 37.4379 52.3834 37.6532 53.2265Z" fill="#727272"/>
<path d="M38.3302 59.6869C38.5724 60.4037 38.8818 61.0935 39.2629 61.7427C39.5364 62.207 40.1418 62.1529 40.4242 61.7427C40.5005 61.63 40.5543 61.5128 40.5901 61.382C40.5946 61.3414 40.5991 61.3054 40.6081 61.2648C40.6798 61.0033 40.617 61.0123 40.4108 61.2964C40.2897 61.2964 40.1731 61.2964 40.0521 61.2964C39.8637 61.2378 39.9489 61.2513 40.0476 61.3595C40.1193 61.4361 40.209 61.5173 40.3032 61.5714C40.496 61.6796 40.7247 61.7202 40.9444 61.7021C41.4466 61.6661 41.7918 61.3324 41.9577 60.8771C42.2582 60.0611 40.9578 59.7049 40.6619 60.5164C40.7471 60.291 40.9578 60.4172 40.922 60.309C40.8951 60.2324 40.7381 60.1287 40.6664 60.0881C40.4467 59.9619 40.1821 59.9349 39.9445 60.016C39.7247 60.0881 39.5499 60.2549 39.4378 60.4578C39.3391 60.6382 39.366 60.9086 39.2584 61.0619C39.644 61.0619 40.0341 61.0619 40.4198 61.0619C40.0924 60.5074 39.8279 59.9394 39.6216 59.3307C39.3526 58.5102 38.0522 58.8619 38.3302 59.6869Z" fill="#727272"/>
<path d="M40.1014 67.4008C40.1059 67.775 40.1597 68.1492 40.2763 68.5008C40.3615 68.7578 40.5633 68.9471 40.8368 68.9832C41.0834 69.0148 41.3928 68.9021 41.5049 68.6586C41.5811 68.4963 41.6574 68.334 41.7336 68.1762C41.7695 68.0996 41.8053 68.0274 41.8367 67.9508C41.8546 67.9147 41.8726 67.8742 41.8905 67.8381C41.9264 67.7705 41.9264 67.7705 41.8905 67.8381C41.7919 67.8967 41.6932 67.9553 41.5946 68.0139C41.608 68.0094 41.626 68.0004 41.6394 67.9959C41.5184 67.9959 41.4018 67.9959 41.2807 67.9959C41.2583 67.9869 41.2314 67.9733 41.209 67.9643C41.1282 67.8832 41.0475 67.802 40.9668 67.7209C40.8996 67.6082 40.9623 67.7028 40.9892 67.7795C41.0117 67.8516 41.0386 67.9192 41.061 67.9914C41.1103 68.1311 41.1596 68.2754 41.2045 68.4152C41.3211 68.7623 41.6663 68.9877 42.034 68.8885C42.3658 68.7984 42.6214 68.4016 42.5048 68.0545C42.312 67.4955 42.1506 66.5758 41.3704 66.6795C40.765 66.7606 40.5633 67.5 40.3391 67.9779C40.7471 68.032 41.1596 68.0861 41.5677 68.1402C41.4825 67.8742 41.4421 67.6578 41.4376 67.3963C41.4332 67.0446 41.1327 66.702 40.7651 66.72C40.4108 66.7381 40.0969 67.0221 40.1014 67.4008Z" fill="#727272"/>
<path d="M46.2803 68.2211C46.2444 68.5277 46.2085 68.8388 46.1727 69.1453C46.1368 69.4339 46.4058 69.7269 46.6659 69.799C46.9708 69.8847 47.2533 69.7359 47.4237 69.488C47.5448 69.3121 47.6658 69.1408 47.7869 68.965C47.8407 68.8838 47.899 68.8072 47.9528 68.7261C47.9752 68.6945 47.9976 68.6629 48.02 68.6314C48.1187 68.4961 48.1052 68.5051 47.9842 68.6584C47.8721 68.69 47.76 68.7215 47.6434 68.7486C47.6658 68.7486 47.6838 68.7486 47.7062 68.7486C47.5941 68.717 47.482 68.6855 47.3654 68.6584C47.2309 68.424 47.186 68.3789 47.2309 68.5232C47.2443 68.5773 47.2533 68.6359 47.2667 68.69C47.2892 68.8027 47.3116 68.9109 47.3385 69.0236C47.3878 69.258 47.4102 69.533 47.5313 69.7449C47.6479 69.9433 47.8407 70.1146 48.0649 70.1777C48.4102 70.2724 48.6926 70.0966 48.8944 69.8261C49.1141 69.533 48.9393 69.0687 48.6523 68.9019C48.307 68.699 47.9528 68.8523 47.7331 69.1453C47.7241 69.1589 47.7151 69.1724 47.7062 69.1814C47.899 69.0687 48.0918 68.956 48.2891 68.8478C48.2756 68.8478 48.2622 68.8523 48.2487 68.8523C48.3608 68.8838 48.4729 68.9154 48.5895 68.9425C48.7061 69.0011 48.7778 69.3302 48.7106 68.9966C48.6926 68.9019 48.6702 68.8117 48.6523 68.717C48.6164 68.5502 48.585 68.3834 48.5492 68.2166C48.4684 67.865 48.2577 67.5223 47.89 67.4186C47.482 67.3059 47.1591 67.5404 46.9305 67.8469C46.7018 68.158 46.4865 68.4781 46.2668 68.7937C46.6838 68.9064 47.1008 69.0191 47.5223 69.1363C47.5582 68.8297 47.5941 68.5187 47.6299 68.2121C47.6703 67.8469 47.2892 67.5359 46.9574 67.5359C46.5583 67.5449 46.3251 67.8605 46.2803 68.2211Z" fill="#727272"/>
<path d="M46.926 55.8729C46.76 56.5942 46.6793 57.3336 46.6928 58.073C46.7018 58.7086 47.6344 59.0377 47.9483 58.4156C48.0828 58.1451 48.2173 57.8791 48.3518 57.6086C48.4505 57.4102 48.5222 57.1623 48.7016 57.0225C48.6029 57.0811 48.5043 57.1397 48.4057 57.1984C48.4057 57.1938 48.4057 57.1893 48.4101 57.1848C48.1949 57.018 47.9797 56.8557 47.76 56.6889C47.8452 57.009 47.9304 57.3291 48.0156 57.6492C48.1232 58.0504 48.6388 58.2939 49.002 58.0549C49.0648 58.0144 49.1276 57.9693 49.1903 57.9287C49.9078 57.4508 49.2352 56.2787 48.5133 56.761C48.4505 56.8016 48.3877 56.8467 48.3249 56.8873C48.6523 57.0225 48.9841 57.1578 49.3114 57.293C49.2262 56.9729 49.141 56.6528 49.0558 56.3328C48.9796 56.0487 48.7016 55.8323 48.4057 55.8368C47.4595 55.8549 47.1367 57.0361 46.787 57.7394C47.204 57.8521 47.621 57.9648 48.0425 58.082C48.0335 57.4553 48.0873 56.8512 48.2263 56.2381C48.4146 55.386 47.1188 55.0253 46.926 55.8729Z" fill="#727272"/>
<path d="M45.6436 45.7563C45.675 46.2883 45.7019 46.8157 45.7333 47.3477C45.7691 48.015 46.6211 48.2719 46.9888 47.6904C47.2488 47.2756 47.5089 46.8653 47.769 46.4506C47.3834 46.4506 46.9933 46.4506 46.6076 46.4506C46.7018 46.6129 46.7601 46.7616 46.7691 46.951C46.8005 47.5461 47.4775 47.8301 47.917 47.4289C48.2577 47.1223 48.4774 46.7526 48.6434 46.3243C48.316 46.4596 47.9842 46.5948 47.6569 46.7301C47.6569 46.7391 47.6569 46.7481 47.6524 46.7526C47.5941 46.6534 47.5358 46.5543 47.4775 46.4551C47.491 46.4821 47.4999 46.5137 47.5134 46.5407C47.6524 46.8789 47.9573 47.1178 48.3429 47.0141C48.6568 46.9284 48.9527 46.5227 48.8137 46.1801C48.6972 45.9051 48.5761 45.7383 48.334 45.5579C47.9528 45.2739 47.4865 45.5985 47.3475 45.9637C47.2668 46.1711 47.1278 46.3243 46.9664 46.4731C47.3475 46.6309 47.7331 46.7932 48.1143 46.951C48.0918 46.5272 47.9842 46.135 47.769 45.7698C47.5044 45.3235 46.8767 45.3415 46.6076 45.7698C46.3476 46.1846 46.0875 46.5948 45.8274 47.0096C46.2444 47.1223 46.6615 47.235 47.0829 47.3522C47.0516 46.8202 47.0247 46.2928 46.9933 45.7608C46.9395 44.8907 45.5943 44.8862 45.6436 45.7563Z" fill="#727272"/>
<path d="M46.0068 36.8162C45.9664 37.1588 45.9485 37.5014 45.9575 37.8441C45.9709 38.3129 46.5359 38.7457 46.9708 38.4302C47.195 38.2679 47.334 38.083 47.4103 37.817C47.4282 37.7539 47.4461 37.6818 47.4551 37.6187C47.4641 37.56 47.4999 37.5555 47.4506 37.6006C47.2175 37.817 46.9708 38.1281 46.5987 37.6773C46.639 37.7269 46.6256 37.7223 46.5987 37.6637C46.6301 37.7314 46.6525 37.808 46.6839 37.8756C46.7377 37.9928 46.8184 38.0965 46.9081 38.1867C47.1861 38.4617 47.5986 38.5158 47.9349 38.322C48.2532 38.1416 48.3564 37.7088 48.177 37.3977C47.9887 37.0777 47.5762 36.974 47.2578 37.1543C47.2444 37.1633 47.2264 37.1723 47.213 37.1813C47.3251 37.1498 47.4372 37.1182 47.5537 37.0912C47.5896 37.0867 47.9125 37.267 47.8856 37.276C47.9035 37.3121 47.9035 37.3121 47.89 37.2805C47.8766 37.2445 47.8631 37.2084 47.8452 37.1723C47.7914 37.0416 47.7286 36.9199 47.63 36.8117C47.4103 36.5817 47.0695 36.469 46.7601 36.5682C46.4686 36.6584 46.2758 36.8928 46.1817 37.1768C46.1592 37.24 46.1503 37.3031 46.1323 37.3707C46.1234 37.4023 46.1144 37.4293 46.1099 37.4609C46.092 37.5195 46.092 37.5195 46.1144 37.4609C46.1413 37.3752 46.1996 37.3076 46.2893 37.2625C46.6256 37.4564 46.9619 37.6502 47.3026 37.8486C47.2937 37.5059 47.3116 37.1633 47.352 36.8207C47.3968 36.469 47.0112 36.1309 46.6794 36.1444C46.2803 36.1625 46.0561 36.442 46.0068 36.8162Z" fill="#727272"/>
<path d="M45.5943 29.8823C45.4687 30.3782 45.5315 30.8877 45.796 31.325C46.1099 31.8569 46.8318 31.6946 47.0246 31.1627C47.0964 30.9643 46.9888 31.2844 47.056 31.0815C47.0829 31.0049 47.1054 31.0409 47.0381 31.0725C46.8318 31.1807 46.5538 31.1086 46.4911 30.8381C46.5763 31.1942 46.9753 31.4061 47.3206 31.3114C47.6793 31.2123 47.8766 30.8381 47.7914 30.4774C47.6703 29.9635 47.1143 29.6884 46.6166 29.8057C46.1279 29.9274 45.8902 30.3557 45.7288 30.7975C46.1368 30.7434 46.5493 30.6893 46.9574 30.6352C46.8901 30.518 46.8812 30.527 46.8677 30.3872C46.8767 30.4594 46.8722 30.3692 46.8722 30.3467C46.8812 30.1483 46.8453 30.4278 46.8901 30.234C46.9753 29.8913 46.778 29.4856 46.4193 29.3999C46.0741 29.3278 45.6884 29.5126 45.5943 29.8823Z" fill="#727272"/>
<path d="M26.3671 28.2865C26.1698 28.548 25.9904 28.823 25.8335 29.1116C25.569 29.5849 26.0173 30.3243 26.5913 30.1034C26.7975 30.0268 26.9993 29.9456 27.2056 29.869C26.9321 29.7112 26.6541 29.5534 26.3761 29.3956C26.4119 29.4993 26.4299 29.5669 26.4254 29.6706C26.4209 30.0132 26.7393 30.3784 27.098 30.3468C27.4343 30.3198 27.7212 30.2386 28.0217 30.0944C28.349 29.9366 28.4342 29.4632 28.2638 29.1702C28.0665 28.8321 27.6719 28.7689 27.3446 28.9267C27.2773 28.9583 27.1518 28.9898 27.098 28.9944C27.3222 29.2198 27.5464 29.4452 27.7706 29.6706C27.775 29.4542 27.7437 29.2378 27.6719 29.0349C27.5598 28.7148 27.2056 28.4263 26.8424 28.5616C26.6361 28.6382 26.4344 28.7193 26.2281 28.796C26.4792 29.1251 26.7348 29.4587 26.9859 29.7878C27.1473 29.4993 27.3222 29.2243 27.5195 28.9628C27.7392 28.6698 27.5643 28.2054 27.2773 28.0386C26.941 27.8447 26.5868 27.9935 26.3671 28.2865Z" fill="#727272"/>
<path d="M22.5603 35.8786C22.3047 36.4421 22.085 37.0192 21.9056 37.6143C21.7935 37.984 22.0402 38.3266 22.3765 38.4483C22.6634 38.552 22.9728 38.4889 23.2239 38.3266C23.3315 38.2544 23.4033 38.1823 23.484 38.0876C23.7934 37.718 23.3674 38.1958 23.1163 37.8848C23.058 37.7856 22.9997 37.6864 22.9414 37.5872C22.9056 37.461 22.9325 37.7225 22.9325 37.718C22.9459 37.8217 22.9728 37.9299 23.0266 38.0245C23.1298 38.2003 23.3181 38.3446 23.5109 38.3987C23.8741 38.4979 24.3404 38.3581 24.4974 37.9885C24.6408 37.6548 24.596 37.2626 24.2552 37.0643C23.9727 36.8974 23.4795 36.9696 23.336 37.3077C23.3495 37.2897 23.3629 37.2716 23.3809 37.2581C23.4795 37.1995 23.5781 37.1409 23.6768 37.0823C23.8113 37.1229 23.9458 37.1634 24.0803 37.204C24.1386 37.3032 24.1969 37.4024 24.2552 37.5016C24.2911 37.6278 24.2642 37.3167 24.2552 37.2852C24.2193 37.1499 24.1566 37.0282 24.0669 36.929C23.901 36.7532 23.6858 36.6495 23.4436 36.636C23.2239 36.6269 23.0221 36.6901 22.8428 36.8163C22.7576 36.8749 22.6858 36.9425 22.6186 37.0237C22.3406 37.3483 22.5334 37.0733 22.7396 37.1454C22.8966 37.4249 23.0535 37.6999 23.2105 37.9794C23.3539 37.4971 23.5243 37.0282 23.7306 36.5683C23.8786 36.2347 23.8248 35.8425 23.4885 35.6441C23.1925 35.4683 22.7083 35.545 22.5603 35.8786Z" fill="#727272"/>
<path d="M21.0716 43.8539C20.9281 44.6293 20.9281 45.3822 21.0806 46.1576C21.1568 46.5408 21.5693 46.6851 21.9101 46.631C22.1074 46.5994 22.2912 46.4867 22.4302 46.3379C22.4885 46.2748 22.5423 46.1982 22.5917 46.126C22.6186 46.0855 22.641 46.0449 22.6634 45.9998C22.7038 45.9367 22.6903 45.9412 22.6141 46.0043C22.493 46.0043 22.3764 46.0043 22.2554 46.0043C22.2868 46.0133 22.3181 46.0223 22.3495 46.0314C22.2509 45.9728 22.1522 45.9141 22.0536 45.8555C22.0043 45.7518 21.9998 45.7564 22.0446 45.8691C22.067 45.9232 22.0895 45.9773 22.1119 46.0314C22.1836 46.1666 22.2823 46.2748 22.4078 46.356C22.7082 46.5588 22.9818 46.5453 23.3046 46.3965C23.6364 46.2478 23.7171 45.7609 23.5467 45.4723C23.3494 45.1297 22.9593 45.0801 22.6275 45.2289C22.6051 45.2379 22.5782 45.2514 22.5558 45.2604C22.7307 45.2379 22.9011 45.2154 23.0759 45.1928C23.049 45.1838 23.0221 45.1793 22.9952 45.1703C23.0939 45.2289 23.1925 45.2875 23.2912 45.3461C23.3181 45.4363 23.3181 45.4453 23.2956 45.3777C23.2732 45.3055 23.2463 45.2379 23.2149 45.1748C23.1746 45.0981 23.1297 45.0215 23.067 44.9584C22.8786 44.7555 22.6186 44.6608 22.345 44.6879C22.1074 44.7104 21.8967 44.8276 21.7307 44.999C21.65 45.0801 21.5828 45.1748 21.5245 45.274C21.511 45.301 21.4931 45.3281 21.4796 45.3551C21.3945 45.4814 21.4169 45.4678 21.5514 45.3191C21.8249 45.4768 22.1029 45.6346 22.3809 45.7924C22.2778 45.2695 22.2733 44.733 22.3719 44.21C22.4392 43.8493 22.2733 43.4797 21.9011 43.376C21.5693 43.2903 21.1389 43.4932 21.0716 43.8539Z" fill="#727272"/>
<path d="M22.0311 53.6142C22.2195 53.9929 22.4033 54.3716 22.5916 54.7503C22.7575 55.0839 23.2104 55.1606 23.5108 54.9938C23.753 54.8585 23.9189 54.6421 23.9951 54.3716C24.031 54.2499 24.0534 54.0966 24.04 53.9704C24.0265 53.8261 24.0893 53.8667 24.013 53.9343C23.9144 53.9929 23.8158 54.0515 23.7171 54.1101C23.7081 54.1146 23.6992 54.1146 23.6902 54.1192C23.5781 54.0876 23.466 54.056 23.3494 54.029C23.5826 54.1642 23.6947 54.3806 24.0355 54.3806C24.439 54.3806 24.5287 54.1417 24.7708 53.9028C24.6722 53.9614 24.5735 54.02 24.4749 54.0786C24.3449 53.9974 24.2148 53.9163 24.0848 53.8306C24.1386 54.1913 24.5915 54.3897 24.9143 54.304C25.2999 54.1958 25.4389 53.8351 25.3851 53.47C25.3224 53.0642 24.9412 52.7622 24.5466 52.7216C24.0848 52.6765 23.7844 52.929 23.5647 53.3077C23.6454 53.2265 23.7261 53.1454 23.8068 53.0642C23.7844 53.0822 23.7575 53.1003 23.735 53.1183C23.8471 53.0868 23.9592 53.0552 24.0758 53.0281C24.0534 53.0281 24.0265 53.0281 24.0041 53.0281C24.1162 53.0597 24.2283 53.0913 24.3449 53.1183C24.2641 53.0732 24.0534 52.8433 23.874 52.7937C23.6185 52.7216 23.3494 52.7757 23.1387 52.9335C22.9504 53.0732 22.8203 53.2806 22.7531 53.5015C22.7082 53.6413 22.7575 53.9253 22.6858 54.0245C22.7665 53.9433 22.8472 53.8622 22.9279 53.781C22.901 53.7946 22.8741 53.8126 22.8427 53.8261C23.1476 53.9073 23.457 53.9884 23.7619 54.0696C23.5736 53.6909 23.3898 53.3122 23.2015 52.9335C22.8069 52.149 21.6455 52.8343 22.0311 53.6142Z" fill="#727272"/>
<path d="M26.1833 63.6587C26.1609 64.2403 26.7617 64.5694 27.2684 64.4116C27.5105 64.335 27.6854 64.1637 27.802 63.9473C27.8199 63.9112 27.8379 63.8706 27.8558 63.8346C27.9544 63.6768 27.8558 63.7219 27.5509 63.9788C27.4119 63.9608 27.4747 63.9608 27.5733 64.0149C27.8917 64.1907 28.3087 64.0915 28.4925 63.7715C28.6719 63.4604 28.5687 63.0231 28.2504 62.8472C27.9186 62.6624 27.5419 62.5542 27.1742 62.7075C26.9859 62.7886 26.829 62.9239 26.7214 63.1042C26.69 63.1538 26.6586 63.2124 26.6406 63.271C26.6317 63.2891 26.6227 63.3071 26.6137 63.3251C26.8469 63.0636 27.089 63.0411 27.3446 63.2575C27.4029 63.3567 27.4612 63.4559 27.5195 63.5551C27.524 63.5911 27.5285 63.6272 27.533 63.6633C27.5464 63.3071 27.2146 62.969 26.8604 62.987C26.4792 63.0005 26.1967 63.28 26.1833 63.6587Z" fill="#727272"/>
<path d="M51.0377 30.1576C51.1184 30.5634 51.2574 30.9421 51.4323 31.3163C51.5982 31.6634 52.0511 31.7085 52.3515 31.5597C52.5219 31.4741 52.6609 31.3208 52.7506 31.154C52.7775 31.1044 52.7954 31.0503 52.8223 30.9962C52.9658 30.6851 52.8179 31.154 52.4726 31.1179C52.3605 31.0863 52.2484 31.0548 52.1318 31.0277C52.0556 30.9917 52.2439 31.1134 52.2439 31.1134C52.3157 31.1675 52.365 31.199 52.4502 31.2351C52.625 31.3118 52.8044 31.3253 52.9927 31.2982C53.3963 31.2306 53.6339 30.9691 53.7864 30.604C53.9254 30.2658 53.6339 29.8601 53.3156 29.7699C52.93 29.6617 52.6295 29.9052 52.486 30.2433C52.643 29.9502 52.8403 29.8871 53.0734 30.0539C53.0555 30.0359 53.0376 30.0179 53.0152 30.0043C52.93 29.9187 52.7685 29.8285 52.652 29.797C52.4367 29.7384 52.2036 29.7744 52.0152 29.8871C51.8583 29.9818 51.7462 30.1306 51.67 30.2929C51.652 30.3335 51.6296 30.3785 51.6117 30.4236C51.5624 30.5679 51.5893 30.4326 51.67 30.3966C51.9749 30.4777 52.2843 30.5589 52.5892 30.64C52.4636 30.374 52.3874 30.0945 52.3291 29.806C52.2618 29.4453 51.8314 29.2424 51.4996 29.3326C51.1364 29.4273 50.9705 29.797 51.0377 30.1576Z" fill="#727272"/>
<path d="M52.5982 37.8982C52.6834 38.3265 52.773 38.7548 52.8582 39.1831C53.0017 39.8909 53.9478 39.7602 54.1541 39.1831C54.2214 38.9892 54.3379 38.863 54.4859 38.7278C54.1317 38.6827 53.7819 38.6376 53.4277 38.5925C53.5443 38.863 53.6653 39.138 53.7819 39.4085C53.9164 39.7196 54.4366 39.8548 54.7011 39.652C54.8626 39.5302 54.9926 39.422 55.0957 39.2417C55.1316 39.1786 55.1719 39.1019 55.1944 39.0298C55.2033 38.9983 55.2168 38.9667 55.2347 38.9397C55.3423 38.7413 55.1361 38.6782 54.6115 38.7503C54.5621 39.111 54.9567 39.4265 55.284 39.4265C55.6876 39.4265 55.9073 39.1155 55.9566 38.7503C56.0329 38.1868 55.5082 37.6773 54.9657 37.6773C54.6922 37.6773 54.4455 37.799 54.2617 37.9929C54.1765 38.0831 54.1182 38.1823 54.0599 38.2905C54.0241 38.3626 53.8851 38.588 54.0241 38.4843C54.329 38.5655 54.6384 38.6466 54.9433 38.7278C54.8267 38.4573 54.7056 38.1823 54.589 37.9118C54.4052 37.488 53.8178 37.515 53.5308 37.7765C53.208 38.0695 53.0017 38.4212 52.8538 38.8269C53.2842 38.8269 53.7192 38.8269 54.1496 38.8269C54.0644 38.3987 53.9747 37.9704 53.8895 37.5421C53.7236 36.6855 52.4233 37.0462 52.5982 37.8982Z" fill="#727272"/>
<path d="M53.7774 48.2403C53.7371 48.5784 53.7774 48.9256 53.8671 49.2502C53.9792 49.6424 54.4904 49.9084 54.8536 49.6559C55.0912 49.4891 55.2347 49.3088 55.3379 49.0383C55.3648 48.9707 55.3872 48.8985 55.4096 48.8264C55.45 48.6821 55.4096 48.876 55.293 48.894C55.172 48.894 55.0554 48.894 54.9343 48.894C54.8222 48.8489 54.7505 48.7813 54.7325 48.6821C54.7191 48.6371 54.7236 48.6506 54.7505 48.7227C54.7639 48.7633 54.7774 48.8084 54.7908 48.8489C54.867 49.0563 54.9747 49.2231 55.145 49.3629C55.5127 49.6604 55.9297 49.6109 56.2885 49.3313C56.5754 49.1059 56.5216 48.61 56.2885 48.3756C56.006 48.0915 55.6248 48.1502 55.3379 48.3756C55.3244 48.3891 55.3065 48.3981 55.293 48.4116C55.3917 48.353 55.4903 48.2944 55.589 48.2358C55.571 48.2403 55.5531 48.2448 55.5352 48.2493C55.6562 48.2493 55.7728 48.2493 55.8939 48.2493C55.9746 48.2629 56.0912 48.5108 56.0418 48.362C56.006 48.2448 55.9611 48.1231 55.8983 48.0194C55.71 47.7129 55.3782 47.537 55.024 47.5731C54.7101 47.6047 54.4545 47.803 54.2841 48.0645C54.2124 48.1772 54.1631 48.3034 54.1227 48.4297C54.1093 48.4702 54.0824 48.5289 54.0779 48.5694C54.0734 48.628 54.0644 48.5559 54.1765 48.4793C54.5038 48.6145 54.8357 48.7498 55.163 48.885C55.1002 48.6641 55.0912 48.4657 55.1181 48.2358C55.1585 47.8706 54.7774 47.5596 54.4456 47.5596C54.0554 47.5641 53.8223 47.8752 53.7774 48.2403Z" fill="#727272"/>
<path d="M53.4053 56.202C53.3694 56.6438 53.4053 57.0766 53.4725 57.5139C53.5532 58.0234 54.2752 58.1541 54.598 57.8115C54.7146 57.6898 54.8356 57.568 54.9612 57.4553C55.0733 57.3561 55.1899 57.257 55.2796 57.1938C54.9522 57.0586 54.6204 56.9233 54.2931 56.7881C54.3334 56.9053 54.3334 56.7701 54.32 56.8963C54.329 56.8016 54.2662 56.9819 54.311 56.9053C54.1362 57.2254 54.2348 57.6447 54.5532 57.8295C54.8626 58.0098 55.2975 57.9107 55.4724 57.5861C55.6652 57.2299 55.728 56.8151 55.5934 56.4274C55.4634 56.0577 54.9791 55.7467 54.607 56.0217C54.2662 56.2741 53.9478 56.5446 53.6564 56.8512C54.033 56.9504 54.4052 57.0496 54.7818 57.1488C54.737 56.8557 54.737 56.5131 54.7594 56.193C54.7863 55.8413 54.4321 55.5032 54.0868 55.5168C53.6922 55.5438 53.4367 55.8233 53.4053 56.202Z" fill="#727272"/>
<path d="M52.9748 65.0339C52.7327 65.4442 52.5489 65.895 52.4457 66.3639C52.365 66.72 52.5534 67.0942 52.9165 67.1979C53.2932 67.3016 53.616 67.0717 53.7461 66.7245C53.7864 66.6118 53.9209 66.3684 53.9927 66.2737C53.6743 66.2737 53.3605 66.2737 53.0421 66.2737C52.9614 66.1745 52.939 66.0663 52.9704 65.9401C52.9121 66.3008 53.0645 66.6659 53.4412 66.7741C53.764 66.8643 54.2079 66.6659 54.2707 66.3008C54.3335 65.9266 54.2662 65.5975 53.9972 65.3179C53.764 65.0745 53.2708 65.0339 53.0466 65.3179C52.7865 65.6425 52.5982 65.9716 52.4502 66.3639C52.8807 66.4856 53.3156 66.6028 53.7461 66.7245C53.8313 66.3458 53.9434 66.0483 54.1407 65.7192C54.3245 65.4036 54.2124 64.9753 53.8985 64.795C53.5802 64.6056 53.1632 64.7183 52.9748 65.0339Z" fill="#727272"/>
<path d="M57.8982 67.7343C57.6202 68.0995 57.4901 68.5504 57.4677 69.0057C57.4543 69.2717 57.6471 69.5287 57.8802 69.6233C58.1448 69.7315 58.4004 69.6684 58.6156 69.4836C58.9474 69.1995 59.2792 68.911 59.611 68.627C59.2568 68.5819 58.907 68.5368 58.5528 68.4917C58.5259 68.4512 58.5394 68.3926 58.5439 68.3475C58.5483 68.3159 58.6201 68.2077 58.5483 68.3204C58.3555 68.6315 58.4811 69.0643 58.7905 69.2446C59.1133 69.434 59.5169 69.3123 59.7097 69.0012C59.9384 68.636 59.9339 68.1717 59.7142 67.802C59.4765 67.4052 58.9878 67.3827 58.656 67.6667C58.3241 67.9507 57.9923 68.2393 57.6605 68.5233C58.0416 68.6811 58.4273 68.8434 58.8084 69.0012C58.8174 68.7983 58.7725 69.0913 58.8174 68.8975C58.8353 68.8299 58.8532 68.7577 58.8757 68.6901C58.8398 68.7848 58.9295 68.5954 58.9295 68.5909C58.9653 68.5278 59.0057 68.4692 59.0505 68.4151C59.2702 68.1221 59.0954 67.6577 58.8084 67.4909C58.4721 67.288 58.1224 67.4413 57.8982 67.7343Z" fill="#727272"/>
<path d="M60.3823 58.88C60.2881 59.3939 60.2343 59.9124 60.2298 60.4398C60.2208 61.1025 61.158 61.373 61.4853 60.7825C61.6871 60.4128 61.9247 60.0927 62.2207 59.7951C61.9472 59.8312 61.6781 59.8673 61.4046 59.8988C61.3911 59.8898 61.3732 59.8763 61.3598 59.8673C61.3015 59.7681 61.2432 59.6689 61.1849 59.5697C61.1714 59.5292 61.2163 59.4029 61.1714 59.5472C61.14 59.6373 61.1221 59.7816 61.1176 59.8673C61.1087 60.0837 61.1714 60.2956 61.297 60.4714C61.4405 60.6652 61.6781 60.796 61.9247 60.796C62.0593 60.796 62.2162 60.7554 62.3328 60.6923C62.3552 60.6788 62.3731 60.6698 62.3955 60.6562C62.5032 60.5886 62.4718 60.5841 62.3014 60.6427C62.1893 60.6111 62.0772 60.5796 61.9606 60.5525C61.7812 60.4624 61.7678 60.3587 61.7857 60.2279C61.7364 60.5886 61.8754 60.9538 62.2565 61.062C62.5704 61.1476 63.0323 60.9538 63.0861 60.5886C63.1399 60.2009 63.1219 59.8087 62.826 59.5156C62.678 59.3714 62.4538 59.2857 62.2476 59.2902C62.1131 59.2947 61.9561 59.3398 61.8395 59.4029C61.8081 59.421 61.6602 59.4841 61.7454 59.466C61.8664 59.466 61.983 59.466 62.1041 59.466C62.0862 59.4615 62.0637 59.4525 62.0458 59.448C62.1444 59.5066 62.2431 59.5652 62.3417 59.6238C62.3866 59.998 62.4269 60.0927 62.4673 59.9078C62.4852 59.8628 62.4942 59.8177 62.5032 59.7681C62.5256 59.6644 62.5345 59.5562 62.5256 59.448C62.5076 59.1505 62.3552 58.8664 62.0817 58.7357C61.8126 58.6004 61.4898 58.6185 61.2656 58.8394C60.8934 59.2136 60.5751 59.6373 60.3195 60.0972C60.7365 60.2099 61.1535 60.3226 61.575 60.4398C61.5795 60.0386 61.6109 59.6373 61.6826 59.2406C61.7454 58.88 61.584 58.5103 61.2118 58.4066C60.88 58.3164 60.445 58.5193 60.3823 58.88Z" fill="#727272"/>
<path d="M61.288 49.5704C61.0952 50.0348 61.0907 50.5622 61.2387 51.0401C61.445 51.6983 62.3148 51.6668 62.5346 51.0401C62.6467 50.7155 62.8484 50.4585 63.104 50.2331C62.7229 50.0753 62.3373 49.913 61.9561 49.7553C61.9696 49.9852 61.9875 50.2151 62.001 50.4405C62.0279 50.8372 62.2879 51.0717 62.6736 51.1168C62.8888 51.1438 63.0861 51.0717 63.2654 50.9545C63.3417 50.9049 63.4089 50.8463 63.4672 50.7786C63.4896 50.7471 63.5165 50.72 63.539 50.693C63.6197 50.6073 63.5524 50.6254 63.3327 50.7471C63.2206 50.7155 63.1085 50.684 62.9919 50.6569C62.956 50.6163 62.9157 50.5758 62.8798 50.5352C62.8484 50.4225 62.817 50.3098 62.7901 50.1926C62.7901 50.2106 62.7901 50.2286 62.7946 50.2467C62.826 50.134 62.8574 50.0212 62.8843 49.904C62.8753 49.9176 62.8664 49.9356 62.8574 49.9491C62.4 50.693 63.5659 51.3737 64.0187 50.6299C64.2878 50.1926 64.0636 49.6245 63.5928 49.4532C63.3461 49.363 63.095 49.3811 62.8664 49.5073C62.7722 49.5569 62.6915 49.629 62.6153 49.7057C62.5973 49.7237 62.5839 49.7462 62.5659 49.7643C62.4763 49.8544 62.5121 49.8544 62.6736 49.7643C62.8978 49.9897 63.122 50.2151 63.3461 50.4405C63.3327 50.2106 63.3148 49.9807 63.3013 49.7553C63.261 49.1556 62.6018 48.8806 62.1534 49.2774C61.723 49.6606 61.427 50.1385 61.2387 50.6795C61.6692 50.6795 62.1041 50.6795 62.5346 50.6795C62.4494 50.4044 62.4763 50.1926 62.5839 49.9311C62.7229 49.593 62.4314 49.1872 62.1131 49.097C61.7274 48.9888 61.427 49.2323 61.288 49.5704Z" fill="#727272"/>
<path d="M60.7276 37.7178C60.7634 38.0964 60.8038 38.4797 60.8397 38.8584C60.871 39.192 61.0683 39.4805 61.4226 39.5211C61.7454 39.5617 62.0772 39.3678 62.1624 39.0387C62.2342 38.7502 62.3328 38.4887 62.4763 38.2317C62.0907 38.2317 61.7006 38.2317 61.315 38.2317C61.3822 38.3579 61.4495 38.4842 61.5123 38.6059C61.7589 39.0702 62.4135 39.0161 62.6736 38.6059C62.696 38.5698 62.7274 38.5383 62.7274 38.5247C62.7991 38.4616 62.7498 38.4661 62.5884 38.5383C62.5167 38.5788 62.4449 38.5879 62.3732 38.5743C62.2925 38.4932 62.2118 38.412 62.131 38.3309C62.1266 38.3128 62.1221 38.2948 62.1176 38.2768C62.3777 39.1018 63.678 38.7502 63.4135 37.9161C63.2789 37.4923 62.9112 37.2263 62.4629 37.2399C62.0279 37.2534 61.723 37.578 61.5078 37.9206C61.8934 37.9206 62.2835 37.9206 62.6691 37.9206C62.6019 37.7944 62.5346 37.6682 62.4718 37.5464C62.2387 37.1046 61.5481 37.1091 61.3105 37.5464C61.1177 37.9026 60.9652 38.2813 60.8621 38.678C61.3015 38.7366 61.7409 38.7997 62.1848 38.8584C62.149 38.4797 62.1086 38.0964 62.0727 37.7178C62.0369 37.3526 61.7903 37.0415 61.4002 37.0415C61.0639 37.0415 60.6917 37.3526 60.7276 37.7178Z" fill="#727272"/>
<path d="M57.3959 30.1575C57.5663 30.5902 57.7771 30.9509 58.073 31.3116C58.4138 31.7263 59.055 31.4558 59.1985 31.014C59.3016 30.6894 59.3465 30.3378 59.3151 29.9997C58.8981 30.1124 58.4811 30.2251 58.0596 30.3423C58.1896 30.5948 58.3735 30.8247 58.5932 31.005C58.8757 31.2349 59.2702 31.28 59.5438 31.005C59.7814 30.7661 59.8262 30.2792 59.5438 30.0493C59.463 29.9861 59.3868 29.914 59.324 29.8374C59.2568 29.7517 59.3644 29.905 59.3061 29.8103C59.2747 29.7607 59.2478 29.7111 59.2209 29.6615C59.0819 29.391 58.7366 29.2693 58.4586 29.346C58.1941 29.4181 57.9385 29.7066 57.9654 29.9997C57.9923 30.2837 57.9833 30.3964 57.8982 30.6534C58.2748 30.5542 58.647 30.455 59.0236 30.3558C58.9653 30.2882 58.907 30.2025 58.8398 30.0853C58.8084 30.0312 58.777 29.9726 58.7456 29.9185C58.7366 29.905 58.6649 29.7337 58.6873 29.8013C58.5528 29.4632 58.2389 29.2242 57.8578 29.3279C57.5439 29.4136 57.2614 29.8148 57.3959 30.1575Z" fill="#727272"/>
<path d="M64.1891 29.6345C64.2429 29.9185 64.3506 30.1935 64.4985 30.446C64.651 30.703 64.9693 30.8382 65.2563 30.7571C65.5612 30.6714 65.7226 30.4054 65.7495 30.1034C65.7809 29.7878 65.8123 29.4677 65.8437 29.1521C65.5074 29.346 65.1711 29.5398 64.8303 29.7382C65.0366 29.8915 65.2429 30.0493 65.4491 30.2025C65.7406 30.4189 66.2024 30.2521 66.3683 29.9591C66.5701 29.6165 66.4177 29.2513 66.1262 29.0349C65.9199 28.8816 65.7137 28.7238 65.5074 28.5705C65.3191 28.4308 65.0187 28.4578 64.8303 28.5705C64.6106 28.7013 64.5209 28.9087 64.4985 29.1566C64.4671 29.4722 64.4358 29.7923 64.4044 30.1079C64.8214 29.9952 65.2384 29.8824 65.6599 29.7652C65.5523 29.5849 65.5254 29.4992 65.485 29.2783C65.4177 28.9177 64.9873 28.7148 64.6555 28.805C64.2878 28.9041 64.1264 29.2738 64.1891 29.6345Z" fill="#727272"/>
<path d="M67.1754 37.7494C67.2382 38.1236 67.3279 38.4843 67.449 38.8449C67.588 39.2732 68.0364 39.4536 68.4354 39.2507C68.682 39.1245 68.839 38.89 68.9018 38.624C68.9331 38.5023 68.9376 38.3716 68.9466 38.2408C68.9466 38.1957 68.9511 38.1507 68.9556 38.1056C68.9466 38.2949 68.821 38.4167 68.5744 38.4798C68.4623 38.4482 68.3502 38.4167 68.2337 38.3896C68.7628 38.6511 69.1753 38.8269 69.7806 38.6917C70.6236 38.5023 70.2694 37.1949 69.4219 37.3888C69.2112 37.4384 69.0901 37.3121 68.9107 37.222C68.5969 37.0687 68.2381 37.0912 67.9646 37.3076C67.7584 37.4699 67.6642 37.6953 67.6283 37.9523C67.6149 38.0515 67.6104 38.1462 67.6014 38.2453C67.5925 38.331 67.5969 38.3355 67.6059 38.2679C67.5611 38.4212 67.6104 38.358 67.7584 38.0875C68.0857 38.2228 68.4175 38.358 68.7448 38.4933C68.6282 38.1326 68.5386 37.772 68.4713 37.3978C68.4085 37.0371 67.9691 36.8342 67.6418 36.9244C67.2651 37.0191 67.1127 37.3888 67.1754 37.7494Z" fill="#727272"/>
<path d="M68.7403 47.5325C68.6955 47.8752 68.6462 48.2178 68.6013 48.5604C68.561 48.8625 68.6282 49.16 68.9107 49.3223C69.1439 49.4621 69.5474 49.4486 69.7268 49.2186C69.8254 49.0879 69.9241 48.9797 70.081 48.9256C69.7985 48.7092 69.5116 48.4928 69.2291 48.2719C69.238 48.5424 69.2425 48.8129 69.2515 49.0834C69.265 49.5342 69.6685 49.8408 70.1034 49.7371C70.3187 49.6875 70.498 49.5793 70.6684 49.4441L70.8343 49.3133C70.8209 49.2953 70.6057 49.3088 70.5563 49.2547C70.498 49.1555 70.4397 49.0563 70.3815 48.9572C70.3904 48.9797 70.3949 49.0022 70.4039 49.0248C70.6864 49.8408 71.9867 49.4891 71.6997 48.6641C71.5428 48.2178 71.1841 47.9653 70.7088 47.9789C70.516 47.9834 70.3142 48.0465 70.1483 48.1457C70.0138 48.2268 69.8882 48.3936 69.7358 48.4297C70.0183 48.6461 70.3052 48.8625 70.5877 49.0834C70.5787 48.8129 70.5743 48.5424 70.5653 48.2719C70.5563 47.8571 70.1393 47.4739 69.7133 47.6182C69.3412 47.7489 69.0094 47.9473 68.7672 48.2629C69.1439 48.4838 69.5161 48.7002 69.8927 48.9211C69.9375 48.5785 69.9869 48.2358 70.0317 47.8932C70.081 47.5325 69.9465 47.1674 69.5609 47.0592C69.256 46.9735 68.7897 47.1674 68.7403 47.5325Z" fill="#727272"/>
<path d="M66.8078 58.7311C66.7136 59.1144 66.6194 59.4976 66.5298 59.8808C66.4446 60.2324 66.6374 60.6201 67.0006 60.7148C67.3234 60.8005 67.6328 60.7373 67.8974 60.5255C68.1081 60.3541 68.1843 60.0881 68.3771 59.9213C68.2785 59.9799 68.1798 60.0386 68.0812 60.0972C68.1126 60.0836 68.144 60.0701 68.1798 60.0566C68.0588 60.0566 67.9422 60.0566 67.8211 60.0566C67.8525 60.0611 67.8839 60.0701 67.9198 60.0746C67.7853 59.9709 67.6507 59.8672 67.5162 59.7635C67.5072 59.7094 67.5117 59.723 67.5252 59.8131C67.5566 59.8898 67.588 59.9664 67.6238 60.0431C67.7135 60.1918 67.8525 60.2955 68.005 60.3632C68.1664 60.4353 68.3457 60.4443 68.5206 60.4082C68.5789 60.4037 68.6372 60.3857 68.691 60.3632C68.9556 60.2775 68.9018 60.2504 68.5296 60.2865C68.4489 60.2054 68.3682 60.1242 68.2875 60.0431C68.2964 60.0566 68.3099 60.0746 68.3188 60.0881C68.2875 59.9754 68.2561 59.8627 68.2292 59.7455C68.2292 59.7635 68.2292 59.7861 68.2247 59.8041C68.1843 60.6742 69.5295 60.6742 69.5699 59.8041C69.5878 59.4344 69.3367 59.1234 68.9914 59.0152C68.83 58.9656 68.6507 58.9611 68.4847 59.0016C68.4265 59.0152 68.1978 59.0603 68.265 59.0693C68.3771 59.1008 68.4892 59.1324 68.6058 59.1594C68.5834 59.1459 68.5655 59.1279 68.543 59.1143C68.6237 59.1955 68.7045 59.2766 68.7852 59.3578C68.7538 59.2947 68.682 59.0557 68.5699 58.9385C68.3906 58.7582 68.0633 58.677 67.8211 58.7447C67.6238 58.7988 67.4534 58.916 67.3189 59.0648C67.2472 59.1459 67.1844 59.2361 67.1306 59.3307C67.1127 59.3623 67.0992 59.3939 67.0813 59.4209C66.9557 59.5922 67.0499 59.5877 67.3638 59.4029C67.5207 59.6824 67.6776 59.9574 67.8346 60.2369C67.9287 59.8537 68.0229 59.4705 68.1126 59.0873C68.3099 58.2442 67.014 57.8836 66.8078 58.7311Z" fill="#727272"/>
<path d="M65.3819 66.8642C65.4805 66.9408 65.5792 67.0174 65.6778 67.0941C65.9648 67.3195 66.4311 67.1392 66.597 66.8506C66.7988 66.5035 66.6463 66.1473 66.3549 65.9264C66.2562 65.8498 66.1576 65.7731 66.0589 65.6965C65.772 65.4711 65.3056 65.6514 65.1397 65.94C64.938 66.2871 65.0949 66.6387 65.3819 66.8642Z" fill="#727272"/>
</g>
<g clip-path="url(#clip1_1940_301)">
<path d="M35.2992 44.7374C35.8584 40.1054 32.6253 36.647 29.1803 33.9798C27.1737 32.4239 25.2122 31.1259 23.9046 28.8988C23.2372 27.7564 22.5969 26.4672 22.2226 25.2003C21.4922 22.7332 22.7547 18.8569 25.8796 21.7019C27.6787 23.3422 28.0936 25.4581 29.4689 27.2807C30.2444 28.312 31.4349 28.8632 32.6749 28.2053C36.404 26.2316 33.5181 19.3858 32.6839 16.6653C31.6738 13.3714 31.1418 10.2019 32.8417 7.03235C33.4009 5.99215 34.0276 4.92083 34.7446 3.98287C35.209 3.37831 35.7997 2.72485 36.4626 2.30699C37.8334 1.43571 38.6585 1.43571 40.1736 1.89802C41.7879 2.39145 41.8014 2.47591 42.1306 4.0051C42.2839 4.7119 42.347 5.48983 42.3831 6.21886C42.4598 7.76138 42.3335 9.31724 42.0134 10.8331C41.4136 13.7092 39.6866 16.2519 39.3079 19.1725C39.0283 21.3196 39.2222 28.1431 42.8115 27.503C47.0185 26.7517 46.7164 20.0927 50.9099 19.2036C54.4 18.4612 56.1045 22.2442 54.6255 24.8402C53.8229 26.2538 52.4882 27.3474 51.203 28.312C48.9124 30.0323 46.1122 30.9303 43.8621 32.6684C39.7903 35.8246 41.1431 40.7855 42.816 44.853C43.1407 45.6398 44.4483 45.2931 44.1191 44.4974C42.9919 41.7546 41.576 38.3984 43.1001 35.5179C44.5114 32.8507 48.236 31.9172 50.6394 30.3435C53.886 28.2187 58.544 24.2179 55.7934 20.0082C53.4937 16.4831 49.0386 17.6611 46.9374 20.6128C46.3016 21.5063 45.8101 22.4887 45.2464 23.4266C44.9894 23.8534 44.7324 24.2846 44.4303 24.6846C44.2138 24.9425 43.9974 25.1959 43.781 25.4537C42.072 25.8271 41.1882 25.3781 41.1296 24.0979C39.4161 20.5061 41.4903 16.8254 42.6537 13.5136C43.5194 11.0509 43.8892 8.42818 43.7043 5.82767C43.578 4.02732 43.3887 1.5913 41.6707 0.515535C40.1601 -0.431314 37.8379 0.111013 36.3544 0.848933C34.1449 1.95137 32.7921 4.2896 31.6738 6.37C28.8015 11.7133 31.7009 16.4208 32.7696 21.8041C32.9094 22.5198 33.2656 24.089 33.0266 24.8847C32.2961 25.5426 31.5656 26.1961 30.8306 26.854C30.4113 26.325 30.0956 25.7471 29.8747 25.1114C29.4508 24.1823 29.0044 23.3155 28.3867 22.4887C27.4127 21.1817 25.5729 19.0347 23.6926 19.1414C21.8664 19.248 20.7932 21.1506 20.5993 22.7376C20.3107 25.0847 21.5868 27.5874 22.7412 29.5789C25.9427 35.0955 34.8663 37.1271 33.9465 44.7463C33.8473 45.5865 35.2 45.582 35.2992 44.7374Z" fill="#46A358"/>
<path d="M46.9869 22.573C47.9609 17.7054 46.1212 13.2557 45.7379 8.45031C45.5079 5.57865 46.748 0.986648 50.689 2.29357C53.6244 3.26709 54.7382 6.71664 54.5398 9.47718C54.3955 11.4953 53.4125 17.4165 57.3535 16.8653C60.7354 16.3941 62.4804 10.8374 64.1218 8.48143C65.5286 6.46326 68.6354 3.51603 71.368 4.33841C75.6968 5.64088 72.9237 10.7619 70.9306 12.7756C67.5713 16.1674 63.991 19.1679 61.0285 22.9464C59.3105 25.138 57.8225 28.7387 61.6327 29.7211C63.0982 30.0989 64.5096 29.5966 65.8307 29.0009C66.8949 28.5209 67.9095 27.9474 69.0413 27.6318C71.1065 27.0539 73.5008 27.5073 72.1346 30.0367C68.9376 35.9623 61.6192 31.5926 56.8981 34.0775C52.8939 36.189 51.9605 40.8566 52.3393 44.9507C52.416 45.7997 53.7732 45.8086 53.6921 44.9507C53.426 42.0968 53.656 39.0118 55.6581 36.7491C58.2463 33.8241 61.7003 34.891 65.1273 34.8243C68.6264 34.7576 73.1311 33.0862 73.8571 29.2321C74.6507 25.0091 69.7718 25.827 67.2692 26.845C66.1644 27.294 65.1318 27.9919 63.9775 28.3208C63.0621 28.5831 61.6147 28.7253 60.8932 27.8763C60.1943 27.0495 60.7579 25.6581 61.1908 24.9557C62.7735 22.3774 65.1995 20.0259 67.3548 17.9055C70.3264 14.9805 75.3947 11.8776 74.9573 7.10783C74.6236 3.45824 71.2057 2.1202 68.0538 3.48935C66.1599 4.31174 64.5952 5.61865 63.3597 7.25008C61.7454 9.37938 60.8842 12.3044 58.9588 14.1803C58.2644 14.856 57.5835 16.2918 56.0323 14.8827C55.3424 14.2559 55.5498 12.5844 55.622 11.7265C55.7167 10.6018 55.9602 9.50385 55.9241 8.3703C55.8655 6.45437 55.2207 4.51177 53.9626 3.02704C51.3022 -0.102451 46.7344 0.0353538 44.9668 3.96056C43.9117 6.30768 44.3761 8.99264 44.818 11.4287C45.4674 15.0249 46.4188 18.5545 45.6838 22.2174C45.517 23.0576 46.8201 23.4176 46.9869 22.573Z" fill="#46A358"/>
<path d="M46.6849 31.0059C46.0491 35.589 45.0075 40.0787 43.5555 44.4796C43.285 45.2975 44.5926 45.6487 44.8587 44.8352C46.3106 40.4344 47.3522 35.9446 47.988 31.3615C48.1053 30.5169 46.8021 30.1568 46.6849 31.0059Z" fill="#46A358"/>
<path d="M30.5059 43.9728C30.3301 40.4432 27.8455 38.0605 24.9867 36.2468C23.1335 35.0688 21.1043 34.0864 19.5126 32.5528C18.8272 31.8949 17.5511 30.6191 17.4835 29.5967C17.2535 26.1871 21.4786 28.841 22.4165 29.6278C23.0748 30.1835 24.0353 29.241 23.3724 28.6854C21.898 27.4451 19.2511 25.8315 17.2265 26.765C15.5941 27.5163 15.8647 29.3788 16.4915 30.7213C19.1293 36.4247 28.806 37.0781 29.1532 43.9728C29.1938 44.8263 30.551 44.8307 30.5059 43.9728Z" fill="#46A358"/>
<path d="M60.8391 45.293C62.5256 42.7859 64.7486 40.7366 67.4721 39.3585C69.9522 38.105 73.0274 37.8871 75.2234 36.1135C77.744 34.0775 77.8748 29.0855 73.7038 29.2144C72.8335 29.241 72.8335 30.5746 73.7038 30.548C75.3496 30.7702 76.017 31.6682 75.7149 33.2374C75.3767 34.1398 74.804 34.851 73.9969 35.3667C73.0094 36.0557 71.8099 36.3713 70.6736 36.7269C69.2262 37.1803 67.8148 37.656 66.4756 38.3672C63.6889 39.852 61.4118 42.0302 59.6668 44.6218C59.1843 45.3375 60.3567 46.0043 60.8391 45.293Z" fill="#46A358"/>
<path d="M64.5141 33.5619C58.7829 34.6287 56.6681 40.252 55.3109 45.173C55.0809 46.0043 56.3886 46.3554 56.614 45.5286C57.8495 41.0522 59.6307 35.8245 64.8748 34.851C65.7271 34.6865 65.3663 33.4018 64.5141 33.5619Z" fill="#46A358"/>
<path d="M34.2937 13.2647C33.6218 10.602 34.4605 7.68585 36.6339 5.89884C37.0713 5.52099 37.5673 5.23205 38.1129 5.03201C39.6145 5.34762 40.3134 6.13889 40.2097 7.4058C40.2368 8.14372 40.0925 8.87275 39.9166 9.584C39.5604 11.0198 38.9336 12.3845 38.4692 13.7893C37.2742 17.4077 35.5562 23.3244 38.7848 26.405C39.0959 26.7029 39.5784 26.2317 39.2628 25.9338C36.431 23.2355 37.883 18.0479 38.8524 14.8161C39.6911 12.0156 41.9683 8.29486 40.4307 5.35207C39.2312 3.05829 36.4806 4.92087 35.3127 6.26336C33.5857 8.25041 33.0041 10.922 33.6398 13.4425C33.7481 13.8604 34.3974 13.6826 34.2937 13.2647Z" fill="#46A358"/>
<path d="M48.5877 24.0623C48.9755 23.2132 49.7601 22.013 50.8107 21.8707C52.4115 21.6529 53.2367 23.6355 52.3799 24.9469C51.5728 26.1827 50.0352 27.0451 48.7095 27.5741C46.5045 28.4498 45.0255 29.6589 43.4247 31.3881C43.1316 31.7038 43.6096 32.1794 43.9027 31.8593C44.8722 30.8058 45.8642 29.7123 47.1268 28.9832C48.1323 28.4009 49.3002 28.1742 50.3102 27.6052C51.5412 26.9073 53.5343 25.4003 53.6786 23.88C53.7958 22.6531 52.4837 21.2306 51.2572 21.155C49.7782 21.0617 48.5426 22.5553 48.006 23.7289C47.8257 24.1112 48.4119 24.4535 48.5877 24.0623Z" fill="#46A358"/>
<path d="M23.3003 24.8358C23.4491 23.6667 23.8955 23.2355 24.635 23.5511C24.8965 23.5556 25.113 23.6489 25.2934 23.8312C25.6496 24.0623 25.8841 24.4046 26.096 24.7647C26.4748 25.4093 26.6506 26.1605 26.9302 26.8451C27.2864 27.7253 27.7554 28.441 28.5625 28.9655C28.9277 29.2055 29.2659 28.6277 28.9052 28.3876C26.9212 27.0896 27.4758 23.72 24.9957 22.9021C23.5077 22.4131 22.0107 23.6845 22.7186 25.1692C22.9035 25.5604 23.4852 25.2226 23.3003 24.8358Z" fill="#46A358"/>
<path d="M47.5326 7.58367C47.1809 5.66329 49.2325 4.13411 50.8017 5.53438C51.6675 6.30786 52.0012 7.73036 52.0057 8.84169C52.0147 10.3486 51.3158 11.6956 51.6134 13.207C51.6945 13.6293 52.3484 13.4515 52.2672 13.0292C51.8929 11.131 52.9661 9.31289 52.4836 7.34362C52.1951 6.16561 51.6089 4.85425 50.3733 4.40972C48.1458 3.61401 46.509 5.73887 46.8787 7.75703C46.9599 8.17934 47.6092 8.00152 47.5326 7.58367Z" fill="#46A358"/>
<path d="M47.1944 11.98C48.2946 14.2605 48.8357 16.2609 48.7546 18.7902C48.741 19.2214 49.4174 19.217 49.4309 18.7902C49.5166 16.1319 48.9304 14.0293 47.7806 11.6466C47.5912 11.2599 47.0095 11.5977 47.1944 11.98Z" fill="#46A358"/>
<path d="M64.735 10.0729C65.3888 8.60153 66.6243 7.67246 68.0538 6.97455C68.4641 6.76117 68.8879 6.5878 69.3298 6.45C71.2372 7.09012 71.7197 7.97474 70.7773 9.11274C70.3264 9.81065 69.6725 10.4374 69.1089 11.0509C66.9625 13.3847 64.6448 15.5451 62.1963 17.5633C61.8627 17.8389 62.3406 18.3101 62.6743 18.0345C64.8883 16.2119 66.9941 14.2737 68.9601 12.1933C70.1415 10.9442 72.4096 9.09051 71.9136 7.1168C70.9261 3.20493 64.9785 7.86805 64.1488 9.73952C63.9775 10.1263 64.5637 10.4641 64.735 10.0729Z" fill="#46A358"/>
<path d="M60.9158 19.9858C58.7559 21.5506 57.4437 23.831 57.1957 26.4582C57.1551 26.885 57.8315 26.8805 57.8721 26.4582C58.0976 24.0844 59.306 21.9729 61.2585 20.5593C61.6057 20.3104 61.2675 19.728 60.9158 19.9858Z" fill="#46A358"/>
<path d="M65.195 31.1082C65.6369 30.8459 66.0788 30.5703 66.5432 30.3436C66.8949 30.1524 67.2647 30.0057 67.6525 29.9035C68.3785 29.6056 68.622 30.1613 68.3785 31.5705C67.9005 32.4995 65.3122 32.5351 64.5096 32.4862C62.503 32.3706 60.6137 31.8283 58.6341 32.4284C58.2193 32.5529 58.3952 33.1974 58.8145 33.073C61.1908 32.3484 63.504 33.4019 65.9029 33.1397C67.2061 32.993 69.0503 32.4017 69.6996 31.1571C70.0604 30.4636 69.9747 29.5479 69.1856 29.17C67.8915 28.5521 65.8714 29.9213 64.8523 30.5303C64.4825 30.757 64.8207 31.3349 65.195 31.1082Z" fill="#46A358"/>
<path d="M55.1395 33.5886C51.6224 36.4025 50.3417 40.67 49.9855 44.973C49.9495 45.3998 50.6258 45.3998 50.6619 44.973C51.0046 40.8345 52.2356 36.7626 55.6175 34.0598C55.9557 33.7887 55.4732 33.3219 55.1395 33.5886Z" fill="#46A358"/>
<path d="M40.0022 34.722C38.9561 36.5091 38.9877 38.4561 39.2176 40.4565C39.4115 42.1368 39.6325 43.786 40.8094 45.0929C41.098 45.413 41.5759 44.9418 41.2873 44.6217C40.133 43.3415 39.9887 41.5634 39.8354 39.9275C39.6731 38.2249 39.6956 36.5757 40.5884 35.0554C40.8049 34.6865 40.2232 34.3531 40.0022 34.722Z" fill="#46A358"/>
<path d="M21.3433 30.3301C19.3864 30.3568 20.1619 32.3883 21.2081 33.1173C22.5157 34.0286 24.0037 34.6376 25.3926 35.4066C27.0294 36.3135 27.6877 37.8427 28.9458 39.1185C29.2479 39.4252 29.7259 38.954 29.4238 38.6473C28.1747 37.3804 27.5705 35.8645 25.9607 34.9577C25.1491 34.4998 24.2968 34.1131 23.4807 33.673C23.0568 33.4463 22.633 33.2195 22.2271 32.9662C22.0648 32.8684 21.898 32.7661 21.7356 32.6683C20.9285 32.366 20.8022 31.8104 21.3478 31.0013C21.7762 30.9924 21.7762 30.3257 21.3433 30.3301Z" fill="#46A358"/>
<path d="M72.2383 33.402C72.2608 34.2911 71.846 34.7756 70.9848 34.8601C70.5699 35.0245 70.1596 35.1846 69.7447 35.349C69.127 35.5935 68.5047 35.838 67.887 36.0825C66.444 36.6515 64.9966 37.225 63.5536 37.794C63.1523 37.9495 63.3282 38.5986 63.734 38.4385C65.3844 37.7851 67.0347 37.1361 68.6851 36.4826C69.9071 35.9981 71.4672 35.6513 72.5539 34.8956C73.4964 34.2377 73.5234 32.873 72.2338 32.7352C71.8054 32.6863 71.8099 33.3576 72.2383 33.402Z" fill="#46A358"/>
<path d="M62.0025 38.7183C60.1898 40.4076 58.7604 42.3902 57.7503 44.6395C57.5745 45.0262 58.1561 45.3685 58.3365 44.9773C59.324 42.7814 60.7083 40.8432 62.4849 39.194C62.7961 38.8962 62.3181 38.425 62.0025 38.7183Z" fill="#46A358"/>
<path d="M30.5511 41.6347C31.0696 42.3904 31.4033 43.2038 31.5611 44.1018C31.6333 44.5241 32.2871 44.3463 32.215 43.924C32.0481 42.9771 31.6829 42.0925 31.1373 41.2968C30.8938 40.9456 30.3076 41.279 30.5511 41.6347Z" fill="#46A358"/>
</g>
<defs>
<clipPath id="clip0_1940_301">
<rect width="55" height="48" fill="white" transform="translate(19 25)"/>
</clipPath>
<clipPath id="clip1_1940_301">
<rect width="61" height="46" fill="white" transform="translate(16)"/>
</clipPath>
</defs>
</svg>
